<?xml version="1.0" encoding="utf-8"?>
<!-- Generator: Adobe Illustrator 22.0.1, SVG Export Plug-In . SVG Version: 6.00 Build 0)  -->
<svg version="1.1" id="Layer_1" xmlns="http://www.w3.org/2000/svg" xmlns:xlink="http://www.w3.org/1999/xlink" x="0px" y="0px"
	 viewBox="0 0 283.5 222.2" style="enable-background:new 0 0 283.5 222.2;" xml:space="preserve">
<style type="text/css">
	.st0{fill-rule:evenodd;clip-rule:evenodd;fill:#00A588;}
</style>
<path class="st0" d="M122.4,0v5C89.2,28.7,67.6,67.4,67.6,111.1c0,46,23.9,86.4,60.1,109.7v1.4H116c-34.1-25.2-56.2-65.6-56.2-111.1
	C59.8,65.6,81.9,25.2,116,0H122.4L122.4,0z M122.4,14.7c-28.6,22.5-47,57.3-47,96.4c0,41.5,20.7,78.1,52.4,100.4v-9.6
	c-4.5-3.5-8.7-7.3-12.6-11.3c-4.6-0.4-7.7-1.4-9.4-2.9c-2-1.8-3.1-6.1-3.3-12.9c-12.2-18.2-19.3-40.1-19.3-63.6
	c0-23.7,7.2-45.8,19.6-64.1c0.3-6.9,1.4-11.2,3.4-12.8c1.7-1.3,4.7-2.2,9-2.6c2.3-2.4,4.7-4.7,7.2-6.9V14.7L122.4,14.7z M102.7,62.3
	c-7.5,14.6-11.8,31.2-11.8,48.8c0,17.3,4.1,33.6,11.4,48.1V153l4.2-3.2c-5.1-11.9-7.9-25-7.9-38.7c0-9.7,1.4-19,4-27.9V62.3
	L102.7,62.3z M107,101.8c-0.3,3-0.5,6.1-0.5,9.2c0,11.9,2.3,23.3,6.5,33.8l6.4-4.9c-3.3-9-5.1-18.7-5.1-28.9
	c0-5.7,0.6-11.2,1.6-16.6L107,101.8L107,101.8z M126.3,86c-2.7,7.9-4.2,16.3-4.2,25.1c0,8.3,1.3,16.4,3.8,23.9l6.6-5.1
	c-1.7-6-2.6-12.3-2.6-18.8c0-13.5,3.9-26.2,10.8-36.8L126.3,86L126.3,86z M173.9,47l1-0.8c1.9-1.5,3.3-3,4.2-4.5
	c0.9-1.5,1.4-3,1.4-4.5c0-0.1,0-0.2,0-0.3c6-1.5,12.3-2.3,18.8-2.3c13.2,0,25.6,3.3,36.5,9.1c-1.7,1.3-3.4,2.7-5.2,4.2l-1.4,1.2
	c-9-4.3-19.2-6.7-29.9-6.7C190.3,42.3,181.7,43.9,173.9,47L173.9,47z M171,31.6c8.8-3.1,18.3-4.8,28.2-4.8
	c15.9,0,30.8,4.4,43.5,11.9c1.8-1.1,3.6-2.2,5.3-3.1c0.8-0.4,1.6-0.8,2.4-1.2c-14.7-9.7-32.3-15.4-51.3-15.4
	c-16.9,0-32.8,4.5-46.5,12.4h14.7C168.7,31.5,169.9,31.5,171,31.6L171,31.6z M148.7,24.9V16c15.1-7.9,32.3-12.4,50.5-12.4
	c28,0,53.5,10.5,72.7,27.8h-9.8c-0.7,0-1.4,0-2.2,0.1C243,18.9,222,11.3,199.2,11.3C180.8,11.3,163.5,16.3,148.7,24.9L148.7,24.9z
	 M148.7,7.3c6.3-3,12.9-5.5,19.7-7.3h-19.7V7.3L148.7,7.3z M230,0h22.3c7.5,3.5,14.6,7.8,21.2,12.7v9.9C260.9,12.2,246.2,4.4,230,0
	L230,0z M268.5,0c1.7,1,3.3,2.1,5,3.2V0H268.5L268.5,0z M222.5,54.5l-6.8,5.8c-5.2-1.7-10.8-2.6-16.5-2.6
	c-29.7,0-53.7,23.9-53.7,53.4s24.1,53.4,53.7,53.4c11.9,0,23-3.9,31.9-10.4l4.3,6.4c-10.2,7.4-22.7,11.7-36.2,11.7
	c-34,0-61.5-27.3-61.5-61.1c0-33.7,27.5-61.1,61.5-61.1C207.4,50,215.3,51.6,222.5,54.5L222.5,54.5z M208.5,66.4
	c-3-0.6-6.1-0.9-9.3-0.9c-25.4,0-46,20.4-46,45.6c0,25.2,20.6,45.6,46,45.6c10.3,0,19.9-3.4,27.6-9.1l-4.3-6.4
	c-6.4,4.9-14.5,7.8-23.2,7.8c-21.1,0-38.2-17-38.2-37.9c0-20.9,17.1-37.9,38.2-37.9c0.4,0,0.9,0,1.3,0L208.5,66.4L208.5,66.4z
	 M189.6,82.4c-12.1,4-20.8,15.3-20.8,28.6c0,16.7,13.6,30.2,30.4,30.2c7.1,0,13.7-2.4,18.9-6.5l-4.3-6.5c-3.9,3.3-9,5.3-14.5,5.3
	c-12.5,0-22.6-10-22.6-22.4c0-8.6,4.9-16.2,12.2-19.9l-3.4-5.1L189.6,82.4L189.6,82.4z M193.1,97.7c-5.2,2.3-8.7,7.4-8.7,13.4
	c0,8.1,6.6,14.7,14.8,14.7c3.9,0,7.5-1.5,10.2-4l-4.5-6.6c-1.3,1.8-3.4,2.9-5.7,2.9c-3.9,0-7-3.1-7-7c0-3.3,2.3-6.1,5.4-6.8
	L193.1,97.7L193.1,97.7z M239.8,166.9c-11.4,8.2-25.4,13-40.6,13c-12.4,0-24.1-3.2-34.1-8.9l3.6,5.5c0.9,1.2,1.5,2.5,1.9,3.8
	c0.2,0.7,0.4,1.4,0.5,2.1c8.7,3.4,18.2,5.2,28,5.2c16.8,0,32.3-5.3,44.9-14.3L239.8,166.9L239.8,166.9z M248.5,179.7
	c1.8,2.3,3.6,4.2,5.4,5.7c-15.3,11.2-34.3,17.8-54.8,17.8c-16.9,0-32.8-4.5-46.5-12.4h2.9c5.5,0,9.5-0.5,11.9-1.4
	c9.8,3.9,20.4,6,31.6,6C217.6,195.4,234.6,189.5,248.5,179.7L248.5,179.7z M261.3,189.4c-17.1,13.4-38.7,21.4-62.2,21.4
	c-19.9,0-38.5-5.8-54.1-15.7v9c15.9,9.1,34.4,14.4,54.1,14.4c28,0,53.5-10.5,72.7-27.8h-2C266.8,190.7,263.9,190.3,261.3,189.4
	L261.3,189.4z M283,190.7c-14.3,14.8-32.5,25.9-53,31.5h22.3c11.5-5.4,22-12.5,31.2-21v-10.4H283L283,190.7z M283.5,211.4v9.9
	c-0.4,0.3-0.8,0.6-1.1,0.9h-13.8C273.7,218.9,278.7,215.3,283.5,211.4L283.5,211.4z M168.4,222.2h-22.3l-1-0.5V213
	C152.4,216.8,160.2,219.9,168.4,222.2L168.4,222.2z M126.5,190.7c0.4,0.4,0.8,0.7,1.2,1.1v-1.1H126.5L126.5,190.7z M103.6,222.2
	C72,195.4,52,155.5,52,111.1C52,66.6,72,26.8,103.6,0H92C62.6,28,44.2,67.4,44.2,111.1c0,43.7,18.3,83.1,47.8,111.1H103.6
	L103.6,222.2z M81,222.2c-27.6-29-44.6-68-44.6-111.1C36.4,68,53.4,29,81,0H70.5C48.3,25.3,33.5,57.3,29.7,92.5v37.1
	c3.9,35.2,18.6,67.2,40.8,92.5H81L81,222.2z M60.3,222.2c-13.4-16.5-23.9-35.4-30.7-56v5.5c0,5.6-0.5,9.8-1.4,12.7
	c5.9,13.5,13.4,26.3,22.2,37.9H60.3L60.3,222.2z M40.8,222.2h-9.4c-6.7-9.9-12.5-20.4-17.3-31.5c3.3-0.1,6-0.5,8.1-1
	C27.3,201.1,33.6,212,40.8,222.2L40.8,222.2z M22.1,222.2c-6.3-9.9-11.9-20.5-16.5-31.5H0v6.6c3.8,8.6,8.1,16.9,12.9,24.9H22.1
	L22.1,222.2z M3.9,222.2H0v-7.1C1.3,217.5,2.6,219.8,3.9,222.2L3.9,222.2z M29.7,56c6.8-20.6,17.3-39.5,30.7-56h-9.9
	c-8.8,11.6-16.3,24.3-22.2,37.8c0.9,2.8,1.4,7,1.4,12.6V56L29.7,56z M22.2,32.5c-2.1-0.5-4.8-0.8-8.1-1C18.9,20.4,24.7,9.9,31.4,0
	h9.4C33.6,10.1,27.3,21,22.2,32.5L22.2,32.5z M5.6,31.5C10.2,20.5,15.8,9.9,22.1,0h-9.2C8.1,8,3.8,16.3,0,24.9v6.6H5.6L5.6,31.5z
	 M0,7.1V0h3.9C2.6,2.3,1.3,4.7,0,7.1z"/>
</svg>
