<svg xmlns="http://www.w3.org/2000/svg" xmlns:xlink="http://www.w3.org/1999/xlink" viewBox="0 0 296.69 408.94"><defs><style>.cls-1{isolation:isolate;}.cls-2{fill:none;stroke:#3a87bd;stroke-linecap:round;stroke-linejoin:round;stroke-width:2px;}.cls-3{fill:#3a87bd;}.cls-4,.cls-5{fill:#c9edef;}.cls-10,.cls-12,.cls-5,.cls-6,.cls-9{mix-blend-mode:multiply;}.cls-6{fill:#c9b1ef;}.cls-7{fill:#778db8;}.cls-8{fill:#eae589;}.cls-9{fill:#c9d4d0;}.cls-11{fill:#eae4c0;}.cls-12{fill:#ddd4ca;}.cls-13{fill:#00c0c5;}.cls-14{fill:#006365;}.cls-15{fill:#5790a2;}.cls-16{fill:#e1703c;}.cls-17{fill:#00c1c6;}.cls-18{fill:#ffdecf;}.cls-19{fill:#004075;}.cls-20{fill:#007ce4;}.cls-21{fill:#f0b89e;}.cls-22{fill:#00615c;}.cls-23{fill:#e0bba9;}.cls-24{fill:#b59ca9;}.cls-25{fill:#f4d1ef;}.cls-26{fill:#aaa4c2;}.cls-27{fill:#c9edc4;}.cls-28{fill:#aac8a9;}.cls-29{fill:#f6bda2;}.cls-30{fill:#09283d;}.cls-31{fill:url(#linear-gradient);}.cls-32{fill:#45596d;}.cls-33{fill:#54aec1;}.cls-34{fill:#434357;}.cls-35{fill:#4f73b1;}.cls-36{fill:#10486d;}.cls-37{fill:#d8a78e;}.cls-38{fill:#c78805;}.cls-39{fill:#b3c9bc;}.cls-40{fill:#617d99;}.cls-41{fill:#145987;}</style><linearGradient id="linear-gradient" x1="45.54" y1="224.88" x2="147.35" y2="103.68" gradientUnits="userSpaceOnUse"><stop offset="0" stop-color="#fff"/><stop offset="1" stop-color="#64cfe5" stop-opacity="0"/></linearGradient></defs><title>Asset 1</title><g class="cls-1"><g id="Layer_2" data-name="Layer 2"><g id="OBJECTS"><polyline class="cls-2" points="157.44 155.18 177.47 129.56 206.91 146.87"/><path class="cls-3" d="M209.44,148.85c0,1.93-1.13,2.71-2.53,1.75a7,7,0,0,1-2.54-5.24c0-1.92,1.14-2.7,2.54-1.74A7,7,0,0,1,209.44,148.85Z"/><path class="cls-3" d="M43.5,102.92c0,1.93-1.14,2.71-2.54,1.75a7,7,0,0,1-2.54-5.24c0-1.93,1.14-2.71,2.54-1.74A7,7,0,0,1,43.5,102.92Z"/><polyline class="cls-2" points="40.96 101.18 85.48 126.88 100.32 169.72"/><line class="cls-2" x1="42" y1="112.78" x2="73.76" y2="131.12"/><line class="cls-2" x1="42" y1="121.95" x2="73.76" y2="140.29"/><line class="cls-2" x1="42" y1="131.12" x2="73.76" y2="149.45"/><line class="cls-2" x1="42" y1="149.45" x2="73.76" y2="167.78"/><line class="cls-2" x1="42" y1="140.28" x2="73.76" y2="158.62"/><polygon class="cls-4" points="106.52 131.12 34.77 89.96 34.77 21.48 106.52 62.64 106.52 131.12"/><polygon class="cls-4" points="253.99 158.61 150.32 99.16 150.32 30.68 253.99 90.13 253.99 158.61"/><polygon class="cls-5" points="132.46 102.54 76.36 70.36 76.36 16.81 132.46 48.99 132.46 102.54"/><polygon class="cls-6" points="269.36 178.96 227.31 154.84 227.31 114.71 269.36 138.83 269.36 178.96"/><polygon class="cls-7" points="214.06 99.29 202.15 101.38 190.25 103.48 190.25 89.73 190.25 75.99 202.15 87.64 214.06 99.29"/><polygon class="cls-8" points="110.77 192.22 110.77 142.37 159.54 170.59 159.54 204.86 116.97 180.31 110.77 192.22"/><polygon class="cls-9" points="152.85 173.5 117.46 153.14 117.46 151.21 152.85 171.57 152.85 173.5"/><polygon class="cls-9" points="152.85 178.96 117.46 158.6 117.46 156.66 152.85 177.02 152.85 178.96"/><polygon class="cls-9" points="152.85 184.41 117.46 164.05 117.46 162.11 152.85 182.47 152.85 184.41"/><polygon class="cls-9" points="152.85 189.86 117.46 169.5 117.46 167.57 152.85 187.93 152.85 189.86"/><polygon class="cls-9" points="152.85 195.31 117.46 174.95 117.46 173.02 152.85 193.38 152.85 195.31"/><g class="cls-10"><polygon class="cls-11" points="190.25 250.59 190.25 209.5 141.49 181.47 141.49 215.74 184.05 240.29 190.25 250.59"/><polygon class="cls-12" points="148.17 192.09 183.56 212.56 183.56 210.62 148.17 190.16 148.17 192.09"/><polygon class="cls-12" points="148.17 197.55 183.56 218.01 183.56 216.08 148.17 195.61 148.17 197.55"/><polygon class="cls-12" points="148.17 203 183.56 223.46 183.56 221.53 148.17 201.07 148.17 203"/><polygon class="cls-12" points="148.17 208.45 183.56 228.92 183.56 226.98 148.17 206.52 148.17 208.45"/><polygon class="cls-12" points="148.17 213.91 183.56 234.37 183.56 232.43 148.17 211.97 148.17 213.91"/></g><g class="cls-1"><path class="cls-13" d="M111.88,245.53l.08.07-.07-.06Z"/><path class="cls-13" d="M111.77,245.43c.38.32.78.6,1.17.89l-1-.72-.08-.07Z"/><path class="cls-14" d="M118.57,249.57l-.78-.32Z"/><path class="cls-13" d="M119.62,250c-.35-.12-.7-.29-1.05-.43.39.16.78.33,1.17.47Z"/><path class="cls-13" d="M122.13,250.71a17.56,17.56,0,0,1-2.39-.67A17.56,17.56,0,0,0,122.13,250.71Z"/><path class="cls-15" d="M136.63,236.29c0,7.34-2.93,12.24-7.48,14a27.27,27.27,0,0,0-9.86-17.55,3.47,3.47,0,0,0,.53-.12,5.31,5.31,0,0,0,.55-.23,2.68,2.68,0,0,0,1.55-2.57A6.5,6.5,0,0,0,122,229c0-.23,0-.45,0-.68v-.8c.79.24,1.44-.3,1.54-1.42a2.09,2.09,0,0,0,0-.25,4.38,4.38,0,0,0-1.54-3.37v-3a9.34,9.34,0,0,0-4.25-7.36l-.28-.17-3.17-1.83L114,210c-2.36-1.36-4.28-.27-4.28,2.43v3c-.91-.39-1.57.3-1.55,1.58a2.44,2.44,0,0,0,0,.27,5,5,0,0,0,1.52,3.19v.8c0,.21,0,.42,0,.65a6.29,6.29,0,0,0,.06.85,9,9,0,0,0,1.53,4.35c.25.42.52.82.8,1.23l.24.32c-5.15-1.95-9.23.51-9.91,6.15-4.51-7-7.38-15.22-7.36-22.56,0-13.21,9.39-18.54,20.88-11.9S136.67,223.08,136.63,236.29Z"/><path class="cls-16" d="M119.5,232.92l-.39,4-1.37-2.21h0L116.11,232l-.31-.18-.32-.18-1.65.76-1.36.63-.37-4.41c-5.08-1.84-9.06.61-9.73,6.17l.07.11c.61.94,1.25,1.86,1.92,2.75.15.2.31.39.46.58.54.7,1.09,1.38,1.66,2l.61.69c.6.66,1.21,1.29,1.83,1.9l.46.46c.77.73,1.57,1.43,2.39,2.08l.12.1,1,.79c.26.19.51.39.77.57.67.46,1.35.9,2,1.29s1.37.75,2,1.07l.78.32q.53.23,1.05.42l.12,0a17.56,17.56,0,0,0,2.39.67c.16,0,.31,0,.46.08a14.67,14.67,0,0,0,1.82.2l.63,0a12.74,12.74,0,0,0,1.66-.11l.46-.05a11,11,0,0,0,1.93-.52l.06,0A27.27,27.27,0,0,0,119.5,232.92Z"/><path class="cls-14" d="M127.17,250.85c-.16,0-.32,0-.48.05Z"/><path class="cls-14" d="M129.15,250.29Z"/><path class="cls-14" d="M129.15,250.29l-.06,0,.06,0h0Z"/></g><path class="cls-14" d="M102.37,234.84v0l.07.11Z"/><path class="cls-14" d="M107.09,241l-.61-.69Z"/><path class="cls-14" d="M109.38,243.35l-.46-.46Z"/><path class="cls-17" d="M111.77,245.43c-.82-.65-1.62-1.35-2.39-2.08C110.15,244.08,111,244.78,111.77,245.43Z"/><path class="cls-14" d="M113.71,246.89c-.26-.18-.51-.38-.77-.57C113.2,246.51,113.45,246.71,113.71,246.89Z"/><path class="cls-18" d="M112.1,228.64l.21.07a12.84,12.84,0,0,0,3.17,3l-1.65.76-1.36.63Z"/><path class="cls-19" d="M112.1,228.64l.19.06-.19,0Z"/><path class="cls-19" d="M112.28,228.67l0,0h0Z"/><path class="cls-19" d="M119.29,232.74h0l0,0Z"/><path class="cls-18" d="M116.11,232a5.41,5.41,0,0,0,3.18.71,1.84,1.84,0,0,0,.22.17l-.4,4-1.37-2.21Z"/><path class="cls-20" d="M119.33,232.77a1.24,1.24,0,0,0,.18.14h0Z"/><path class="cls-21" d="M122,222.51v-3a9.34,9.34,0,0,0-4.25-7.36l-.28-.17-3.17-1.83L114,210c-2.36-1.36-4.28-.27-4.28,2.43v3c-.91-.39-1.57.3-1.55,1.58a2.44,2.44,0,0,0,0,.27,5,5,0,0,0,1.52,3.19v.8c0,.21,0,.42,0,.65a6.29,6.29,0,0,0,.06.85,9,9,0,0,0,1.53,4.35c.25.42.52.82.8,1.23l.24.32a12.29,12.29,0,0,0,3.52,3.18,5.59,5.59,0,0,0,3.51.89,3.81,3.81,0,0,0,.51-.12,5.31,5.31,0,0,0,.55-.23,2.68,2.68,0,0,0,1.55-2.57A6.5,6.5,0,0,0,122,229c0-.23,0-.45,0-.68v-.8c.79.24,1.44-.3,1.54-1.42a2.09,2.09,0,0,0,0-.25A4.38,4.38,0,0,0,122,222.51Z"/><g class="cls-1"><path class="cls-13" d="M178.23,299l.08.06-.07-.06Z"/><path class="cls-13" d="M178.12,298.94c.39.31.78.6,1.18.89l-1-.73-.08-.06Z"/><path class="cls-14" d="M184.92,303.07l-.78-.32Z"/><path class="cls-13" d="M186,303.51c-.34-.13-.7-.29-1.05-.44.39.17.79.34,1.17.47Z"/><path class="cls-13" d="M188.48,304.22a19.21,19.21,0,0,1-2.39-.68A19.21,19.21,0,0,0,188.48,304.22Z"/><path class="cls-15" d="M203,289.79c0,7.34-2.93,12.24-7.47,14a27.27,27.27,0,0,0-9.86-17.55c.19,0,.36-.07.52-.12a4,4,0,0,0,.55-.24,2.68,2.68,0,0,0,1.56-2.57,6.39,6.39,0,0,0,.05-.78,3.87,3.87,0,0,0,0-.68v-.8c.8.24,1.44-.31,1.54-1.43a2,2,0,0,0,0-.25,4.37,4.37,0,0,0-1.53-3.37v-3a9.39,9.39,0,0,0-4.26-7.36l-.28-.17-3.16-1.82-.29-.16c-2.36-1.37-4.27-.28-4.28,2.43v3c-.9-.39-1.57.31-1.55,1.59a2.35,2.35,0,0,0,0,.26A5,5,0,0,0,176,274v.8c0,.21,0,.42,0,.65a6.15,6.15,0,0,0,.05.85,9,9,0,0,0,1.53,4.35q.38.63.81,1.23l.23.32c-5.15-1.95-9.23.52-9.9,6.16-4.52-7-7.39-15.23-7.37-22.57,0-13.2,9.39-18.53,20.88-11.9S203,276.59,203,289.79Z"/><path class="cls-22" d="M185.85,286.42l-.39,4-1.36-2.21h0l-1.63-2.65-.32-.17-.31-.19-1.65.76-1.36.63-.38-4.41c-5.08-1.84-9,.61-9.72,6.18l.06.1c.61.95,1.26,1.86,1.92,2.75l.46.59c.54.7,1.1,1.37,1.66,2,.21.24.41.47.62.69.59.66,1.2,1.29,1.82,1.9l.46.46c.78.74,1.58,1.44,2.39,2.09l.12.09c.35.28.7.54,1.06.8l.77.56c.67.47,1.35.9,2,1.3s1.37.75,2,1.06l.78.32q.53.23,1.05.42l.12.05a18,18,0,0,0,2.39.67,3.85,3.85,0,0,0,.47.08,14.36,14.36,0,0,0,1.81.21h.64a13,13,0,0,0,1.66-.1l.45-.06a11.3,11.3,0,0,0,1.94-.52l.06,0A27.35,27.35,0,0,0,185.85,286.42Z"/><path class="cls-14" d="M193.52,304.35l-.48.06Z"/><path class="cls-14" d="M195.51,303.8h0Z"/><path class="cls-14" d="M195.5,303.8l-.05,0h.05Z"/></g><path class="cls-14" d="M168.72,288.34h0l.06.1Z"/><path class="cls-14" d="M173.45,294.49c-.21-.22-.41-.45-.62-.69C173,294,173.24,294.27,173.45,294.49Z"/><path class="cls-14" d="M175.73,296.85l-.46-.46Z"/><path class="cls-17" d="M178.12,298.94c-.81-.65-1.61-1.35-2.39-2.09C176.51,297.59,177.31,298.29,178.12,298.94Z"/><path class="cls-14" d="M180.07,300.39c-.26-.17-.51-.38-.77-.56Z"/><path class="cls-18" d="M178.45,282.14l.21.07a12.51,12.51,0,0,0,3.18,3l-1.65.76-1.36.63Z"/><path class="cls-19" d="M178.45,282.14l.19.07a1.39,1.39,0,0,0-.19-.06Z"/><path class="cls-19" d="M178.63,282.17l0,0h0Z"/><path class="cls-19" d="M185.65,286.25h0l0,0Z"/><path class="cls-18" d="M182.47,285.53a5.4,5.4,0,0,0,3.18.72l.21.17-.4,4-1.36-2.21Z"/><path class="cls-20" d="M185.68,286.27l.18.15h0C185.79,286.38,185.74,286.32,185.68,286.27Z"/><path class="cls-21" d="M188.32,276v-3a9.39,9.39,0,0,0-4.26-7.36l-.28-.17-3.16-1.82-.29-.16c-2.36-1.37-4.27-.28-4.28,2.43v3c-.9-.39-1.57.31-1.55,1.59a2.35,2.35,0,0,0,0,.26A5,5,0,0,0,176,274v.8c0,.21,0,.42,0,.65a6.15,6.15,0,0,0,.05.85,9,9,0,0,0,1.53,4.35q.38.63.81,1.23l.23.32a12.47,12.47,0,0,0,3.52,3.19,5.64,5.64,0,0,0,3.51.88,3.82,3.82,0,0,0,.51-.11,4,4,0,0,0,.55-.24,2.68,2.68,0,0,0,1.56-2.57,6.39,6.39,0,0,0,.05-.78,3.87,3.87,0,0,0,0-.68v-.8c.8.24,1.44-.31,1.54-1.43a2,2,0,0,0,0-.25A4.37,4.37,0,0,0,188.32,276Z"/><polygon class="cls-23" points="258.25 202.63 202.15 170.45 202.15 154.07 258.25 186.25 258.25 202.63"/><path class="cls-24" d="M210.34,167.73c0,1.51-.89,2.12-2,1.36a5.45,5.45,0,0,1-2-4.09c0-1.5.88-2.11,2-1.36A5.49,5.49,0,0,1,210.34,167.73Z"/><path class="cls-24" d="M217.33,171.87c0,1.51-.89,2.12-2,1.37a5.5,5.5,0,0,1-2-4.09c0-1.51.89-2.12,2-1.37A5.52,5.52,0,0,1,217.33,171.87Z"/><path class="cls-24" d="M224.32,176c0,1.5-.88,2.11-2,1.36a5.49,5.49,0,0,1-2-4.09c0-1.5.89-2.12,2-1.36A5.45,5.45,0,0,1,224.32,176Z"/><path class="cls-24" d="M231.32,180.16c0,1.51-.89,2.12-2,1.37a5.5,5.5,0,0,1-2-4.1c0-1.5.89-2.11,2-1.36A5.5,5.5,0,0,1,231.32,180.16Z"/><path class="cls-24" d="M238.31,184.31c0,1.5-.89,2.11-2,1.36a5.47,5.47,0,0,1-2-4.09c0-1.51.88-2.12,2-1.37A5.52,5.52,0,0,1,238.31,184.31Z"/><path class="cls-24" d="M245.31,188.45c0,1.5-.89,2.12-2,1.36a5.49,5.49,0,0,1-2-4.09c0-1.5.89-2.11,2-1.36A5.46,5.46,0,0,1,245.31,188.45Z"/><path class="cls-24" d="M252.3,192.59c0,1.51-.89,2.12-2,1.37a5.49,5.49,0,0,1-2-4.09c0-1.51.88-2.12,2-1.37A5.5,5.5,0,0,1,252.3,192.59Z"/><polygon class="cls-25" points="258.25 226.92 202.15 194.73 202.15 178.35 258.25 210.54 258.25 226.92"/><path class="cls-26" d="M210.34,192c0,1.51-.89,2.12-2,1.37a5.47,5.47,0,0,1-2-4.09c0-1.51.88-2.12,2-1.37A5.52,5.52,0,0,1,210.34,192Z"/><path class="cls-26" d="M217.33,196.16c0,1.5-.89,2.11-2,1.36a5.49,5.49,0,0,1-2-4.09c0-1.5.89-2.11,2-1.36A5.49,5.49,0,0,1,217.33,196.16Z"/><path class="cls-26" d="M224.32,200.3c0,1.51-.88,2.12-2,1.37a5.52,5.52,0,0,1-2-4.09c0-1.51.89-2.12,2-1.37A5.47,5.47,0,0,1,224.32,200.3Z"/><path class="cls-26" d="M231.32,204.45c0,1.5-.89,2.11-2,1.36a5.48,5.48,0,0,1-2-4.09c0-1.51.89-2.12,2-1.36A5.49,5.49,0,0,1,231.32,204.45Z"/><path class="cls-26" d="M238.31,208.59c0,1.51-.89,2.12-2,1.36a5.45,5.45,0,0,1-2-4.09c0-1.5.88-2.11,2-1.36A5.49,5.49,0,0,1,238.31,208.59Z"/><path class="cls-26" d="M245.31,212.73c0,1.51-.89,2.12-2,1.37a5.52,5.52,0,0,1-2-4.09c0-1.51.89-2.12,2-1.37A5.49,5.49,0,0,1,245.31,212.73Z"/><path class="cls-26" d="M252.3,216.88c0,1.5-.89,2.11-2,1.36a5.47,5.47,0,0,1-2-4.09c0-1.51.88-2.12,2-1.36A5.49,5.49,0,0,1,252.3,216.88Z"/><polygon class="cls-27" points="258.25 251.2 202.15 219.02 202.15 202.63 258.25 234.82 258.25 251.2"/><path class="cls-28" d="M210.34,216.3c0,1.5-.89,2.12-2,1.36a5.45,5.45,0,0,1-2-4.09c0-1.5.88-2.11,2-1.36A5.49,5.49,0,0,1,210.34,216.3Z"/><path class="cls-28" d="M217.33,220.44c0,1.51-.89,2.12-2,1.37a5.52,5.52,0,0,1-2-4.09c0-1.51.89-2.12,2-1.37A5.52,5.52,0,0,1,217.33,220.44Z"/><path class="cls-28" d="M224.32,224.59c0,1.5-.88,2.11-2,1.36a5.49,5.49,0,0,1-2-4.09c0-1.51.89-2.12,2-1.36A5.45,5.45,0,0,1,224.32,224.59Z"/><path class="cls-28" d="M231.32,228.73c0,1.51-.89,2.12-2,1.36a5.46,5.46,0,0,1-2-4.09c0-1.5.89-2.11,2-1.36A5.49,5.49,0,0,1,231.32,228.73Z"/><path class="cls-28" d="M238.31,232.87c0,1.51-.89,2.12-2,1.37a5.47,5.47,0,0,1-2-4.09c0-1.51.88-2.12,2-1.37A5.52,5.52,0,0,1,238.31,232.87Z"/><path class="cls-28" d="M245.31,237c0,1.5-.89,2.11-2,1.36a5.49,5.49,0,0,1-2-4.09c0-1.5.89-2.12,2-1.36A5.46,5.46,0,0,1,245.31,237Z"/><path class="cls-28" d="M252.3,241.16c0,1.51-.89,2.12-2,1.36a5.45,5.45,0,0,1-2-4.09c0-1.5.88-2.11,2-1.36A5.5,5.5,0,0,1,252.3,241.16Z"/><path class="cls-29" d="M54.39,161.06c-1.06,2.92-2.57,5.78-1.93,9.85S54,180.55,54,180.55l7.85,1.28A4.42,4.42,0,0,1,64,176.48c3.41-1.93,5.77-6,5.77-8.78s-3-2.14-4.71.43-1.07-.43.43-4.5.9-10.76-4.47-9.47C57.37,155,55.45,158.14,54.39,161.06Z"/><path class="cls-30" d="M50.13,179.88S42.65,200.35,38.26,202s-30.74,9.34-32.39,15.1,0,14.82,14.55,10.43S49.51,217.09,52,210s11.44-26,9.79-28.74S52.09,174.84,50.13,179.88Z"/><polygon class="cls-31" points="29.13 170.06 29.13 0 296.69 170.32 44.99 185.07 29.13 170.06"/><path class="cls-29" d="M86.24,272.29s3.4-2,5.75-3.69,6.08-3.9,7.16-.59-3.4,2-2.67,3.72,2.28,1,5.06,0,4.94-4.5,6.43-.69a11.85,11.85,0,0,1-.63,9.29c-.78,1.16-6.6,4.14-13,1.93s-5.66-3.91-7.72-4.59S86.24,272.29,86.24,272.29Z"/><path class="cls-32" d="M45.31,170.81s4.93,3.12,6,4.68.26,9.61.26,9.61,0,1.3-2.6,3.12-3.89,2.85-6.75,2.07-24.15-13-24.15-13-.78,0-.52-3.38-1-8.05,2.85-10.39,7-1,10.65.78S45.31,170.81,45.31,170.81Z"/><path class="cls-33" d="M49.59,371.21C27.78,368.8,6,375.18,1,385.46s8.61,20.57,30.42,23S75,404.46,80,394.18,71.41,373.62,49.59,371.21Z"/><path class="cls-34" d="M53,385.63C51.16,387,39,390,40.18,396.81s25.1-.82,24.55-8.53C64.34,382.59,54.76,384.3,53,385.63Z"/><path class="cls-34" d="M28.2,375.77c-1.8,1.33-14,4.36-12.78,11.18s25.1-.81,24.56-8.53C39.58,372.73,30,374.44,28.2,375.77Z"/><path class="cls-35" d="M8.84,289s5.4,92.87,7.79,96.2,7.84,2.55,10.19.57,4.69-96.18,4.69-96.18Z"/><path class="cls-35" d="M31.51,289.63s6.58,102.09,10.28,104.71a9,9,0,0,0,10.19.57c2.72-1.6,3.88-104.63,3.88-104.63Z"/><path class="cls-36" d="M39.56,207.26s14.09,1.29,18.12,14.68c4.18,13.9.79,66.75.79,68.74s-7,10.81-28.45,9.67c-20.42-1.09-23.2-6.89-23.2-10.43,0-2.88,2.79-11.62,1.29-23.58C5.81,248,3.82,223.88,6.2,216.59,10.09,204.65,30.88,204.7,39.56,207.26Z"/><path class="cls-37" d="M35.6,195.7s1.06,11-.91,12c-5.87,3.13-12.67-.48-12.67-.48l-1-13.42Z"/><path class="cls-29" d="M42.2,170.84s8.38,29.61-2,32c-7.81,1.77-21.53-1.63-22.7-12.33s-7.53-22.81-.08-23.4S42.5,163.54,42.2,170.84Z"/><path class="cls-38" d="M45.07,174.44s-2.74,4.11-5.09,5.87-.78,6.85-1,8.42-7.24,2-7.24,5.28,4.7,9.2-5.09,10c-4.19.34-12.54-2-13.3-7.24s-5.24-9.29-5.68-15.85c-1-14.48,8-20.94,16.44-21.53S49.37,163.29,45.07,174.44Z"/><path class="cls-29" d="M36.46,187.91s-2.65-5.5-5.86-2.83S30.86,197,34.9,195,36.46,187.91,36.46,187.91Z"/><path class="cls-39" d="M21.46,203.65a17.41,17.41,0,0,0,7.43,1.86c4,0,6-1.8,7.41-1.21a11,11,0,0,1,3.83,3.35c.2.58-3.23,3.81-9.39,4.2S18.8,208.92,19.09,208,19.89,203.55,21.46,203.65Z"/><path class="cls-30" d="M50.37,214.45s-13.85-3.34-13,11.3,5.26,36.4,10.86,41.08,10.91,3.63,10.91,3.63Z"/><path class="cls-32" d="M32,159.3s-12.9.35-17.58,7.88-2.6,16.1-2.6,16.1l5.2.78s-3.12-11.17,6.49-16.1,17.14-4.68,17.14-4.68S40,159.56,32,159.3Z"/><path class="cls-32" d="M7.84,174.91s1.37,8,11,8.24,30-6.36,32.33-7.66l.33,7.08S37,188,29.73,189s-16.63,1.55-21-3.38a10.34,10.34,0,0,1-2.15-9.16C7,175,7.84,174.91,7.84,174.91Z"/><path class="cls-32" d="M30,186.53s.31,10.2,5.07,8.18c6.1-2.6,2.47-12.21,2.47-12.21Z"/><path class="cls-40" d="M37.78,184.06s-6.5,1.3-5.59,4.68,1.78,4.76,3.64,4.41C39.33,192.5,39.33,185.1,37.78,184.06Z"/><path class="cls-40" d="M18.36,184.9c10,1.18,24.52-4,30.92-7,.77-.36,1.87-1.22,2.26-1.28s-.39-1.17-.39-1.17c-2.34,1.3-22.72,7.92-32.33,7.66s-11-8.24-11-8.24S7,175,6.61,176.29C7.2,179.11,9.52,183.87,18.36,184.9Z"/><path class="cls-41" d="M43.65,214a7.87,7.87,0,0,1,10.88,4.74c2.3,6.26,6.22,35,12.64,39.17s15.34,9.92,19,10.78,3.73,6.11,2.13,9.71-8.49,1.64-16.54-.93S49,263.65,46.9,255.93s-7.63-27.46-7.73-33.14S41.34,215.36,43.65,214Z"/></g></g></g></svg>