<svg xmlns="http://www.w3.org/2000/svg" xmlns:xlink="http://www.w3.org/1999/xlink" viewBox="0 0 362.43 413.81"><defs><style>.cls-1{isolation:isolate;}.cls-2{opacity:0.8;}.cls-3{fill:#fff;}.cls-4{fill:url(#linear-gradient);}.cls-5{fill:#ffe5ff;}.cls-6{fill:url(#linear-gradient-2);}.cls-7{fill:#95c5c4;}.cls-8{fill:#b3e0de;}.cls-9{fill:#a9d9d7;}.cls-10{fill:#d4c6ee;}.cls-11{fill:#d4ecff;}.cls-12{fill:#d4d5fd;}.cls-13{fill:#ff7fb8;}.cls-14{fill:#ffa5d9;}.cls-15{fill:#ff8ec7;}.cls-16{fill:#c9edef;}.cls-16,.cls-18,.cls-19{mix-blend-mode:multiply;}.cls-17{fill:#88b0e5;}.cls-18{fill:#e5b5ef;}.cls-19{fill:#c9b1ef;}.cls-20{fill:#ffb1ef;}.cls-21{fill:#81cef4;}.cls-22{fill:#dff;}.cls-23{fill:url(#linear-gradient-3);}.cls-24{fill:#5fc5c2;}.cls-25{fill:#f6bda2;}.cls-26{fill:#45596d;}.cls-27{fill:#6d4cbb;opacity:0.4;}.cls-28{fill:#e55281;}.cls-29{fill:#f5bca1;}.cls-30{fill:#ff6a92;}.cls-31{fill:#ff9300;}.cls-32{fill:#617d99;}</style><linearGradient id="linear-gradient" x1="136.93" y1="285.58" x2="142.83" y2="343.14" gradientUnits="userSpaceOnUse"><stop offset="0" stop-color="#f0cfff"/><stop offset="1" stop-color="#865ee5" stop-opacity="0"/></linearGradient><linearGradient id="linear-gradient-2" x1="181.66" y1="273.83" x2="176.97" y2="334.83" xlink:href="#linear-gradient"/><linearGradient id="linear-gradient-3" x1="114.18" y1="302.16" x2="229.93" y2="164.37" gradientTransform="matrix(-1, 0, 0, 1, 373.12, 0)" gradientUnits="userSpaceOnUse"><stop offset="0" stop-color="#fff"/><stop offset="1" stop-color="#865ee5" stop-opacity="0"/></linearGradient></defs><title>Asset 3</title><g class="cls-1"><g id="Layer_2" data-name="Layer 2"><g id="OBJECTS"><g class="cls-2"><path class="cls-3" d="M175.55,80.78c0,1.25.73,1.75,1.64,1.13a4.55,4.55,0,0,0,1.64-3.38c0-1.24-.74-1.75-1.64-1.13A4.54,4.54,0,0,0,175.55,80.78Z"/><path class="cls-3" d="M85.94,196.6c0,3.09,1.82,4.34,4.06,2.8s4.07-5.31,4.07-8.4-1.82-4.34-4.07-2.79S85.94,193.51,85.94,196.6Z"/><path class="cls-3" d="M94.7,249.68c0,1.25.73,1.75,1.64,1.13A4.54,4.54,0,0,0,98,247.43c0-1.25-.73-1.75-1.63-1.13A4.52,4.52,0,0,0,94.7,249.68Z"/><path class="cls-3" d="M75.1,270.62c0,2.73,1.61,3.84,3.6,2.47a10,10,0,0,0,3.59-7.42c0-2.73-1.61-3.84-3.59-2.47A9.93,9.93,0,0,0,75.1,270.62Z"/><path class="cls-3" d="M111.07,192.41c0,1.24.74,1.75,1.64,1.13a4.57,4.57,0,0,0,1.64-3.38c0-1.25-.74-1.75-1.64-1.13A4.55,4.55,0,0,0,111.07,192.41Z"/><path class="cls-3" d="M247.42,133.49c0,3.78,2.23,5.31,5,3.42s5-6.5,5-10.28-2.23-5.31-5-3.42S247.42,129.7,247.42,133.49Z"/><polygon class="cls-3" points="239.78 65.92 238.09 66.9 238.09 80.84 239.78 79.86 239.78 65.92"/><polygon class="cls-3" points="232.93 76 232.93 77.69 244.94 70.76 244.94 69.08 232.93 76"/><polygon class="cls-3" points="75.95 223.68 74.26 224.65 74.26 238.59 75.95 237.62 75.95 223.68"/><polygon class="cls-3" points="69.1 233.75 69.1 235.44 81.11 228.51 81.11 226.83 69.1 233.75"/><polygon class="cls-3" points="194.53 220.04 193.52 220.62 193.52 228.91 194.53 228.33 194.53 220.04"/><polygon class="cls-3" points="190.45 226.03 190.45 227.04 197.6 222.92 197.6 221.91 190.45 226.03"/></g><polygon class="cls-4" points="124.53 273.97 124.53 336.54 154.78 354 155.17 291.66 124.53 273.97"/><polygon class="cls-5" points="172.07 246.43 124.53 273.97 155.17 291.66 202.71 264.12 172.07 246.43"/><polygon class="cls-6" points="202.71 326.69 202.71 264.12 155.17 291.66 154.78 354 202.71 326.69"/><polygon class="cls-7" points="162.97 211.68 162.97 262.29 172.34 267.7 172.46 217.16 162.97 211.68"/><polygon class="cls-8" points="172.46 206.21 162.97 211.68 172.46 217.16 181.95 211.68 172.46 206.21"/><polygon class="cls-9" points="181.95 262.29 181.95 211.68 172.46 217.16 172.34 267.7 181.95 262.29"/><polygon class="cls-10" points="150.51 252.29 150.51 269.17 159.88 274.58 160 257.77 150.51 252.29"/><polygon class="cls-11" points="160 246.81 150.51 252.29 160 257.77 169.49 252.29 160 246.81"/><polygon class="cls-12" points="169.49 269.17 169.49 252.29 160 257.77 159.88 274.58 169.49 269.17"/><polygon class="cls-13" points="137.61 237.57 137.61 276.73 146.98 282.14 147.1 243.05 137.61 237.57"/><polygon class="cls-14" points="147.1 232.09 137.61 237.57 147.1 243.05 156.59 237.57 147.1 232.09"/><polygon class="cls-15" points="156.59 276.73 156.59 237.57 147.1 243.05 146.98 282.14 156.59 276.73"/><polygon class="cls-3" points="97.97 215.17 182.66 166.07 182.66 96.5 97.97 145.6 97.97 215.17"/><polygon class="cls-3" points="206.4 248.14 279.29 206.33 279.29 136.76 206.4 178.57 206.4 248.14"/><polygon class="cls-16" points="170.24 220.84 227.23 188.14 227.23 133.75 170.24 166.44 170.24 220.84"/><polygon class="cls-17" points="102.4 156.09 144.4 131.74 144.4 130.06 102.4 154.41 102.4 156.09"/><polygon class="cls-17" points="102.4 161.72 144.4 137.36 144.4 135.68 102.4 160.04 102.4 161.72"/><polygon class="cls-17" points="102.4 167.34 144.4 142.99 144.4 141.31 102.4 165.66 102.4 167.34"/><polygon class="cls-17" points="102.4 172.96 144.4 148.61 144.4 146.93 102.4 171.28 102.4 172.96"/><polygon class="cls-17" points="102.4 178.59 144.4 154.23 144.4 152.55 102.4 176.91 102.4 178.59"/><polygon class="cls-17" points="102.4 184.21 144.4 159.86 144.4 158.18 102.4 182.53 102.4 184.21"/><polygon class="cls-17" points="102.4 189.84 144.4 165.48 144.4 163.8 102.4 188.16 102.4 189.84"/><polygon class="cls-17" points="102.4 195.46 144.4 171.1 144.4 169.42 102.4 193.78 102.4 195.46"/><polygon class="cls-17" points="102.4 201.08 144.4 176.73 144.4 175.05 102.4 199.4 102.4 201.08"/><polygon class="cls-18" points="149 127.92 149 171.53 178.24 154.75 178.24 111.14 149 127.92"/><polygon class="cls-19" points="90 271.91 132.71 247.41 132.71 206.65 90 231.15 90 271.91"/><path class="cls-20" d="M261.85,187.51c-.82,11.35-9.24,22.82-18.78,25.61s-16.61-4.11-15.78-15.45,9.22-22.82,18.78-25.62S262.68,176.16,261.85,187.51Z"/><path class="cls-13" d="M252.37,190.3c-.37,5.12-4.18,10.29-8.47,11.55s-7.51-1.85-7.13-7,4.17-10.29,8.48-11.55S252.74,185.18,252.37,190.3Z"/><path class="cls-21" d="M199.37,106.12v25l41.52-23.93s-4.8-13.19-13.84-5.68-12.11,9.87-15.57,8.4S204,103.85,199.37,106.12Z"/><path class="cls-22" d="M235.37,96.41c-2.39-.87-5-.52-7.7,1a17.83,17.83,0,0,0-2.42,1.7,84.29,84.29,0,0,1-9.23,7.11c-1.52.88-2.42,1-3.55.54a19.62,19.62,0,0,1-2.75-1.59c-2.77-1.79-6.17-4-10.35-2.42v1.25c3.82-1.65,6.82.27,9.73,2.14a21.09,21.09,0,0,0,2.92,1.68,4.32,4.32,0,0,0,1.67.37,5.93,5.93,0,0,0,2.91-1,86.46,86.46,0,0,0,9.39-7.22,15.58,15.58,0,0,1,2.26-1.59c2.41-1.39,4.67-1.72,6.72-1,4.28,1.55,7,8.32,7.27,9l1-.46C242.81,104.86,240,98.1,235.37,96.41Z"/><polygon class="cls-3" points="277.52 79.71 249.35 95.94 249.35 94.5 277.52 78.27 277.52 79.71"/><polygon class="cls-3" points="274.64 85.56 249.35 100.12 249.35 98.68 274.64 84.11 274.64 85.56"/><polygon class="cls-3" points="263.44 83.65 249.35 91.76 249.35 90.32 263.44 82.2 263.44 83.65"/><polygon class="cls-3" points="197.95 133.61 197.95 101.28 195.96 102.43 195.96 136.76 245.17 108.4 245.17 106.4 197.95 133.61"/><polygon class="cls-23" points="311.1 212.13 259.29 0 0 296.48 297.16 225.32 311.1 212.13"/><path class="cls-24" d="M329.72,247.53c2,2.69,2.58,6.24-1.23,9.81s-12.32-.57-13.26-.27-.65-13.47,1.16-13.92S327.68,244.85,329.72,247.53Z"/><path class="cls-25" d="M273.57,225c.72,1.91-.06,2.54,3.08,5.35,2.58,2.32,6.3,4.56,13.45,7.45,15.84,6.41,33.51,6.13,37.25,9.24s2,8.48-3.41,9.44c-6.9,1.23-28.67-4.81-35.74-8.46-1.38-.71-5.89-3.89-7.24-4.92-4.53-3.48-8.37-6.63-11.65-9.61-1.1-1-2.69-1.3-4.07-2.41S262,227.51,261,227c-2-1.13-3.6-1.46-3.07-2.78,1-2.61,4,0,4.7.45s-2.55-5.38-2.15-8.18,2.1-2.65,3.43,1.36,2,4.19,2,4.19,1-.85,3.34-.37S272.85,223.12,273.57,225Z"/><path class="cls-26" d="M301.33,213.7s-4,2.51-4.8,3.76-.21,7.73-.21,7.73,0,1,2.09,2.51,3.13,2.29,5.43,1.67,19.43-10.45,19.43-10.45.63,0,.42-2.71.83-6.48-2.3-8.36-5.64-.84-8.57.63S301.33,213.7,301.33,213.7Z"/><path class="cls-27" d="M299.33,365.81c27.75-3.07,55.41,5.05,61.78,18.13s-11,26.16-38.71,29.22S267,408.11,260.61,395,271.57,368.87,299.33,365.81Z"/><path class="cls-28" d="M320.44,382.63A37.08,37.08,0,0,1,327.6,385c1.4.75.92,2.74.78,4-.2,1.83-2.26,4.42-8.37,1.65-6.32-2.87-8.8-3.78-9.05-5.61s.39-4.22,2.12-4.54C315.29,380.08,320.44,382.63,320.44,382.63Z"/><path class="cls-29" d="M313.69,309.67s.69,15.77,2.67,31,5.29,45.86,5.29,45.86,1,2.61,4.49,1c2.34-1.07,1.44-3.61,1.67-5.16.44-3,1.52-23.41.71-26.81-1.08-4.52-2.47-8.14-1.71-11s.44-33.91.44-33.91Z"/><path class="cls-28" d="M306.23,388.6a37.53,37.53,0,0,1,7.16,2.37c1.41.75.93,2.74.79,4-.21,1.84-2.26,4.43-8.38,1.65-6.32-2.86-8.8-3.77-9-5.6s.38-4.22,2.11-4.54C301.08,386.05,306.23,388.6,306.23,388.6Z"/><path class="cls-29" d="M299.48,315.63s.69,15.77,2.68,31,5.29,45.86,5.29,45.86,1,2.61,4.48,1c2.34-1.07,1.45-3.6,1.67-5.16.44-3,1.52-23.41.71-26.8-1.07-4.52-2.46-8.15-1.71-11s.44-33.9.44-33.9Z"/><path class="cls-30" d="M316.83,241.28c4.83-.09,11.79,3.5,13.41,7.91s-1.81,31.91-1.42,36.51,6.41,30.24,6.73,38.68.2,10.12.2,10.12-3.09,6.8-15.79,7.83c-17.46,1.42-24.58-4.76-26.18-8.26s2.4-30.7,4.1-38.1,3.12-21.27,1.54-27.19-2.87-17,2.56-21.91C308.68,240.77,312,241.38,316.83,241.28Z"/><path class="cls-25" d="M300.54,221.48s-1.45,15,4.16,16.3a14.17,14.17,0,0,0,11.83-2.56s3.19-17.9-3.52-19.82S301.5,216.36,300.54,221.48Z"/><path class="cls-31" d="M303.1,210.29a13.39,13.39,0,0,0-3.83,9.27c0,5.75,2.45,4.43,5.33,4.11s2,7.4,2,9.31c0,1.2-2.95,3.51-4.68,8a22,22,0,0,0-1.4,6.2c-.21,3.33,1.48-1.36,5,.87s4.28,14.79,5.24,18,.31,5.43,5.75,3.83,4.47-.64,6.71-.32,6.9-3.08,6.58-8.2.14-16.67.14-21.15,6.39-26.11-3.84-31.22C317.24,204.57,306.3,204.22,303.1,210.29Z"/><path class="cls-26" d="M312.3,203.86s10.38-.16,14.39,5.74,2.62,12.86,2.62,12.86l-3.95,2s1.94-10.28-5.95-13.93-13.93-3.19-13.93-3.19S305.84,204.33,312.3,203.86Z"/><path class="cls-26" d="M331.47,217s-1.1,6.42-8.83,6.63-24.13-5.12-26-6.16l-.26,5.69s11.65,4.34,17.5,5.17,13.37,1.26,16.92-2.71a8.29,8.29,0,0,0,1.72-7.37C332.19,217.09,331.47,217,331.47,217Z"/><path class="cls-26" d="M313.66,226.34s-.25,8.21-4.08,6.58c-4.9-2.09-2-9.82-2-9.82Z"/><path class="cls-32" d="M307.39,224.35s5.22,1.05,4.49,3.76-1.43,3.83-2.92,3.56C306.14,231.14,306.14,225.19,307.39,224.35Z"/><path class="cls-32" d="M323,225c-8,.94-19.73-3.24-24.87-5.6-.63-.29-1.51-1-1.82-1s.31-.94.31-.94c1.88,1,18.28,6.37,26,6.16s8.83-6.63,8.83-6.63.65.11,1,1.11C332,220.37,330.11,224.2,323,225Z"/><path class="cls-25" d="M254.05,267.16s24.12,6.18,26.73,5.4,9.7-9.15,9.7-9.15l10.43,5.19s-13.51,13-17.23,14.7S252.34,273,250.2,272s-7.65-3.27-11.31-6.48c-2-1.79-2-2.85-1.39-4.81.56-1.68,1.15-3.57,2.8-3.94,4-.91,6.8,3.21,8.24,5.08.77-1.06-.59-1.94-.53-3.94s2.17-1.32,3.07,1.23,1.75,2.95,2.54,5A10.59,10.59,0,0,1,254.05,267.16Z"/><path class="cls-24" d="M310.24,253.72c.47-3.68-2.78-8.29-8.36-6s-16,16.88-15.09,19.26c.6,1.54,2,3.1,4.25,4.85a8.11,8.11,0,0,0,6.92,1.5C300.14,272.86,309.44,260,310.24,253.72Z"/></g></g></g></svg>