<svg xmlns="http://www.w3.org/2000/svg" viewBox="0 0 426.54 336.71"><defs><style>.cls-1{fill:#e74c3c;fill-rule:evenodd;}</style></defs><title>Asset 1</title><g id="Layer_2" data-name="Layer 2"><g id="Layer_1-2" data-name="Layer 1"><path class="cls-1" d="M184.16,0V7.54a198.05,198.05,0,0,0,8,327.12v2H174.62A209.76,209.76,0,0,1,174.62,0Zm0,22.21a186.33,186.33,0,0,0,8,298.31v-14.6a176.32,176.32,0,0,1-18.93-17.19q-10.38-.92-14.1-4.46c-3-2.78-4.66-9.27-5-19.53a174.69,174.69,0,0,1,.52-193.56c.41-10.47,2.12-16.94,5.09-19.33,2.51-2,7-3.31,13.52-3.87q5.22-5.49,10.9-10.49V22.21Zm-29.6,72.21a163.13,163.13,0,0,0-.51,146.87v-9.37l6.32-4.89a151.74,151.74,0,0,1-5.81-100.94V94.42ZM161,154.36q-.69,6.9-.69,14A139,139,0,0,0,170,219.59l9.69-7.49a128.43,128.43,0,0,1-5.21-68.89L161,154.36ZM190.1,130.3a116.59,116.59,0,0,0-.64,74.23l9.91-7.66a104.51,104.51,0,0,1,12.23-84.32L190.1,130.3Zm71.52-59.07L263.11,70a27.2,27.2,0,0,0,6.28-6.86,13.06,13.06,0,0,0,2.09-6.86,3.77,3.77,0,0,0,0-.47,116.38,116.38,0,0,1,83.12,10.3q-3.84,2.92-7.83,6.32l-2.09,1.78a104.56,104.56,0,0,0-83-3Zm-4.31-23.39A128,128,0,0,1,365.22,58.67q4.13-2.6,8-4.64c1.25-.66,2.47-1.26,3.67-1.82a139.52,139.52,0,0,0-147.1-4.54h22.08c2,0,3.75.06,5.4.17ZM223.72,37.67V24.27a162.93,162.93,0,0,1,185.39,23.4H394.34a27.28,27.28,0,0,0-3.32.21,151.2,151.2,0,0,0-167.3-10.21Zm0-26.54A173.8,173.8,0,0,1,253.34,0H223.72V11.13ZM346.11,0h33.5a186.35,186.35,0,0,1,31.87,19.27v15A174.19,174.19,0,0,0,346.11,0ZM404,0q3.78,2.36,7.46,4.87V0ZM334.79,82.65l-10.22,8.73a80.88,80.88,0,1,0,23.17,142.05l6.52,9.75A92.57,92.57,0,1,1,334.79,82.65Zm-21,18a69.16,69.16,0,1,0,27.46,123.06l-6.52-9.76a57.44,57.44,0,1,1-35-103c.65,0,1.29,0,1.94,0l12.08-10.32ZM285.28,125a45.73,45.73,0,1,0,42.87,79.2l-6.54-9.78a34,34,0,1,1-37.6-56.2l-5.17-7.72,6.44-5.5Zm5.3,23.05A22.29,22.29,0,1,0,315,184.56l-6.71-10a10.58,10.58,0,1,1-11-16.46l-6.72-10Zm70.2,104.91a104.38,104.38,0,0,1-112.43,6.22l5.48,8.31a20.87,20.87,0,0,1,2.93,5.78,19.41,19.41,0,0,1,.77,3.22A116.15,116.15,0,0,0,367.3,262.67l-6.52-9.74ZM374,272.3a55.19,55.19,0,0,0,8.13,8.56A139.49,139.49,0,0,1,229.82,289h4.44c8.32,0,14.28-.73,17.9-2.11A127.91,127.91,0,0,0,374,272.3Zm19.27,14.82a151.24,151.24,0,0,1-175,8.61v13.71A162.92,162.92,0,0,0,409.11,289h-3a41.37,41.37,0,0,1-12.87-1.92ZM425.89,289a174.41,174.41,0,0,1-79.78,47.67h33.5a186.61,186.61,0,0,0,46.93-31.87V289Zm.65,31.41v15c-.57.43-1.13.87-1.7,1.29H404a198.45,198.45,0,0,0,22.52-16.26Zm-173.2,16.26h-33.5l-1.55-.74V322.82a172.61,172.61,0,0,0,35.05,13.89Zm-63-47.67,1.85,1.65V289Zm-34.48,47.67A221.43,221.43,0,0,1,155.86,0H138.41a233.14,233.14,0,0,0,0,336.71Zm-34,0A244.86,244.86,0,0,1,121.89,0H106.07A255.58,255.58,0,0,0,44.66,140.21v56.3a255.48,255.48,0,0,0,61.41,140.2Zm-31.09,0a267.82,267.82,0,0,1-46.14-84.88v8.27q0,12.75-2.13,19.18a279.47,279.47,0,0,0,33.41,57.43Zm-29.37,0H47.22a302.57,302.57,0,0,1-26-47.75,56.06,56.06,0,0,0,12.11-1.54,291.06,291.06,0,0,0,28.13,49.29Zm-28.18,0A313.29,313.29,0,0,1,8.49,289H0V299a326,326,0,0,0,19.47,37.72Zm-27.38,0H0V326c1.9,3.61,3.84,7.19,5.87,10.71ZM44.66,84.88A267.92,267.92,0,0,1,90.8,0H75.94A280,280,0,0,0,42.59,57.3c1.37,4.26,2.07,10.63,2.07,19.06v8.52ZM33.35,49.2a58.93,58.93,0,0,0-12.16-1.46A303.73,303.73,0,0,1,47.22,0H61.43A290.78,290.78,0,0,0,33.35,49.2ZM8.49,47.67A313.29,313.29,0,0,1,33.25,0H19.47A327.63,327.63,0,0,0,0,37.72v10ZM0,10.71V0H5.87C3.84,3.53,1.9,7.11,0,10.71Z"/></g></g></svg>